<?xml version="1.0" encoding="UTF-8" standalone="no"?>
<!-- Created with Inkscape (http://www.inkscape.org/) -->

<svg
   version="1.1"
   id="svg1"
   width="288"
   height="294.66666"
   viewBox="0 0 288 294.66666"
   xmlns="http://www.w3.org/2000/svg"
   xmlns:svg="http://www.w3.org/2000/svg">
  <defs
     id="defs1" />
  <g
     id="g1">
    <path
       style="fill:#000000"
       d="m 24.761994,276.8982 c -5.053904,-0.24878 -5.257434,-0.3259 -8.076031,-3.06018 -1.827806,-1.77313 -3.471255,-4.27642 -4.467566,-6.80497 l -1.576099,-4 -0.01454,-48 -0.01454,-48 1.527352,-3.77841 c 0.840044,-2.07813 2.668189,-5.06398 4.062545,-6.63522 l 2.535192,-2.85681 16.270789,-0.56689 c 8.948934,-0.31179 64.270789,-0.46882 122.937444,-0.34896 120.21444,0.24563 109.69279,-0.27069 113.56336,5.5728 4.1808,6.31186 4.10331,5.25363 4.10331,56.03501 0,30.70923 -0.24256,47.31053 -0.72404,49.55562 -1.0576,4.93139 -5.38694,11.11039 -8.4846,12.10953 -1.85521,0.5984 -31.15167,0.82237 -119.45803,0.91327 -64.349989,0.0662 -119.333042,0.006 -122.184552,-0.13479 z m 240.160276,-8.50844 c 1.13466,-1.08714 2.87931,-3.63714 3.87699,-5.66666 l 1.81396,-3.69005 v -44.33333 -44.33333 l -2.20968,-4.07309 c -1.21532,-2.24021 -3.16532,-4.7902 -4.33333,-5.66667 l -2.12366,-1.59358 -105.66666,-0.22565 C 98.163224,158.68329 44.509924,158.7923 37.050335,159.04965 l -13.562888,0.46791 -2.171349,1.90647 c -1.194242,1.04855 -3.025989,3.78954 -4.07055,6.09108 l -1.899201,4.18461 -0.249825,36.66667 c -0.287887,42.25273 0.0921,49.756 2.800095,55.29094 2.290341,4.68129 4.004683,5.82392 9.613723,6.40769 2.43992,0.25394 56.391572,0.42563 119.89256,0.38154 l 115.45634,-0.0802 z m -18.69715,-23.52337 c -3.68715,-8.70873 -6.22991,-13.5 -7.16454,-13.5 -0.55497,0 -1.48266,0.42272 -2.06153,0.93938 -5.04147,4.49966 -12.95975,5.66586 -19.08957,2.81148 -5.7617,-2.68296 -11.29714,-10.74378 -13.00482,-18.93788 -1.61983,-7.77257 0.24208,-18.82044 4.35443,-25.83764 2.36018,-4.02734 8.41501,-9.31026 12.11589,-10.57128 9.67629,-3.29704 19.40599,1.98035 24.1747,13.11235 3.40806,7.95574 3.44519,17.3353 0.1065,26.90858 -1.12363,3.22188 -2.04296,5.93831 -2.04296,6.03653 0,0.0982 1.84426,2.20955 4.09835,4.69186 2.25409,2.4823 4.53497,5.55255 5.06862,6.82277 1.256,2.9896 0.71053,7.02534 -1.22853,9.08937 -2.34143,2.49234 -3.78858,2.06701 -5.32654,-1.56552 z M 233.55587,227.8168 c 3.16209,-2.09257 6.07467,-6.30935 8.11668,-11.7512 1.02953,-2.74362 1.38811,-5.24916 1.38811,-9.69921 0,-7.72636 -1.74462,-12.68027 -6.05676,-17.19839 -3.59176,-3.76333 -6.8917,-4.80521 -12.99042,-4.10142 -3.54485,0.40907 -4.23004,0.75884 -6.94167,3.54351 -1.65473,1.6993 -4.08485,5.33963 -5.40026,8.08963 -2.25633,4.71707 -2.39093,5.37724 -2.37867,11.66667 0.0143,7.35835 0.92523,10.22339 5.1225,16.11206 2.98187,4.18349 6.24329,5.6567 11.93818,5.39258 3.48442,-0.1616 4.9922,-0.59164 7.20231,-2.05423 z M 55.938777,240.73772 c -4.241679,-1.72104 -9.081084,-10.02851 -10.036186,-17.22841 l -0.438169,-3.30309 2.087055,-0.30631 c 2.49863,-0.36672 3.104565,0.26023 4.394976,4.5474 2.21055,7.34418 5.805352,10.31788 10.83553,8.96339 4.109433,-1.10655 5.497908,-3.45313 5.497908,-9.29167 0,-4.45829 -0.119376,-4.82758 -2.249029,-6.95723 -1.236965,-1.23696 -4.532683,-3.50237 -7.323816,-5.03423 -10.279202,-5.64155 -12.095049,-8.64329 -11.633049,-19.2303 0.394926,-9.05 2.871281,-13.56264 8.472043,-15.43853 7.617853,-2.5515 14.208711,2.04527 16.595293,11.57431 1.668255,6.66095 1.6459,6.83917 -0.965989,7.70117 -2.493083,0.8228 -3.527459,0.25284 -3.551911,-1.95715 -0.02493,-2.25295 -1.743118,-6.36409 -3.401936,-8.13986 -1.395959,-1.49438 -2.4009,-1.93749 -4.394075,-1.93749 -4.831104,0 -7.547531,3.4488 -7.547531,9.58241 0,4.8148 1.383909,6.39761 9.682085,11.07363 9.335505,5.26055 11.61077,8.77142 11.79445,18.19954 0.168862,8.66754 -2.372167,14.10146 -7.732477,16.53567 -2.8332,1.28661 -7.733645,1.60087 -10.085172,0.64675 z m 30.796741,-2.02006 c -7.180446,-6.30451 -9.296979,-26.59728 -3.914453,-37.53074 2.88092,-5.85198 5.234095,-7.9306 9.435069,-8.33427 4.680249,-0.44971 7.958576,1.83665 10.669026,7.44075 2.10106,4.34412 3.74936,13.60184 2.97271,16.69626 -0.5248,2.091 -0.98551,2.19626 -11.55709,2.64059 -4.549844,0.19123 -8.540364,0.61561 -8.867822,0.94307 -0.676654,0.67665 0.495741,6.11844 1.936664,8.98921 1.265393,2.52107 4.686904,4.53468 6.843237,4.02735 2.182912,-0.51358 4.379441,-2.522 5.367799,-4.90811 0.944292,-2.27973 2.124342,-2.81908 4.331682,-1.97985 2.14006,0.81365 2.09307,1.58661 -0.39972,6.57513 -2.73891,5.48105 -5.547656,7.42267 -10.737622,7.42267 -3.288389,0 -4.137242,-0.27675 -6.07948,-1.98206 z m 13.431322,-28.28137 c 0.51775,-4.5364 -3.612593,-10.39243 -7.335799,-10.40074 -2.801269,-0.006 -5.81564,4.1676 -7.542163,10.44328 -0.520484,1.89189 0.408928,2.11387 8.324346,1.98815 l 6.333333,-0.10059 z m 21.03846,29.61005 c -1.72765,-0.69805 -4.04103,-3.56462 -5.39088,-6.67995 -2.12582,-4.90624 -2.8522,-9.15087 -2.85995,-16.71234 -0.0148,-14.43876 4.32724,-22.88808 12.2192,-23.77762 7.44681,-0.83936 12.85628,6.86773 13.61027,19.39107 0.27785,4.61502 0.15267,6.02942 -0.57438,6.48979 -0.51132,0.32378 -3.36067,0.59327 -6.33188,0.59889 -2.97121,0.006 -7.27874,0.20634 -9.57229,0.44607 l -4.17008,0.43586 0.44004,3.39747 c 0.60653,4.68291 2.36109,7.82091 5.25443,9.39747 2.24938,1.22567 2.59405,1.25113 4.26851,0.31527 1.00185,-0.55994 2.67239,-2.28494 3.7123,-3.83333 1.63143,-2.42914 2.21671,-2.81527 4.26726,-2.81527 2.36555,0 2.37466,0.0113 1.97862,2.45183 -0.53584,3.30195 -3.64648,8.18275 -6.39592,10.03559 -2.36213,1.59184 -7.5806,2.02069 -10.45525,0.8592 z m 12.04015,-27.95757 c 0.20768,-0.33603 0.044,-2.16641 -0.36371,-4.06752 -2.0917,-9.75325 -10.73948,-10.34686 -13.70451,-0.9407 -1.70181,5.39878 -1.43867,5.61917 6.70906,5.61917 3.83986,0 7.15149,-0.27493 7.35916,-0.61095 z m 14.51351,26.77762 c -0.81187,-1.97712 -0.58027,-59.99917 0.24278,-60.82203 0.90428,-0.90406 2.70817,-0.25623 3.25508,1.16898 0.22735,0.59246 0.59859,8.53125 0.82499,17.64177 0.22639,9.11051 0.64491,16.70875 0.93005,16.88497 0.68669,0.4244 1.73164,-1.09753 7.80911,-11.37369 l 5.12558,-8.66667 2.83334,-0.205 c 3.75073,-0.27137 3.70305,0.57016 -0.4219,7.44575 -5.44117,9.0695 -6.26128,11.01992 -5.90493,14.04336 0.17606,1.49374 2.45987,7.46831 5.07514,13.27684 2.61527,5.80852 4.58658,10.83352 4.38069,11.16666 -0.65232,1.05547 -4.04515,0.6542 -5.193,-0.61417 -0.60719,-0.67093 -2.29485,-3.96556 -3.75035,-7.32139 -1.45551,-3.35583 -3.28097,-7.34541 -4.05658,-8.86574 -1.63698,-3.20874 -2.0662,-2.99789 -4.88915,2.40172 -1.40464,2.68671 -1.73992,4.24993 -1.73992,8.11214 0,2.63126 -0.1821,5.25865 -0.40466,5.83864 -0.54832,1.42889 -3.51667,1.34802 -4.11627,-0.11214 z M 16.533416,135.06548 c -0.204213,-0.53217 -0.253766,-25.80717 -0.110118,-56.166668 0.19015,-40.18788 0.473623,-55.69766 1.042384,-57.03242 1.004767,-2.35798 3.794714,-2.56963 4.394018,-0.33333 0.221091,0.825 0.412113,9.45 0.424492,19.16666 0.02444,19.17992 0.580042,25.33676 2.523594,27.96474 2.429084,3.28449 4.190941,3.67019 16.805438,3.67904 10.316961,0.007 11.975171,-0.14522 14.333333,-1.3178 4.470001,-2.22267 4.553136,-2.66748 5.160996,-27.61354 0.538525,-22.10061 0.77289,-24.04577 2.897178,-24.04577 2.557781,0 2.608493,1.12759 2.608493,58 0,30.249998 -0.230716,55.824998 -0.512701,56.833328 -0.599976,2.14541 -3.372878,2.5911 -4.14772,0.66667 -0.258356,-0.64167 -0.675755,-11.21667 -0.927553,-23.5 -0.523077,-25.517038 -0.715903,-26.490158 -5.745359,-28.994488 -2.355813,-1.17304 -4.026655,-1.32847 -14.333334,-1.33333 -18.844805,-0.009 -18.097054,-1.23989 -18.624929,30.661148 -0.206289,12.46667 -0.617776,23.04167 -0.914415,23.5 -0.747898,1.15557 -4.417638,1.05449 -4.873797,-0.13424 z m 74.079808,-27.80715 c -4.647365,-2.559 -8.897987,-9.311248 -10.392042,-16.508068 -0.471016,-2.26888 -0.644115,-7.19085 -0.446993,-12.71 0.365768,-10.24098 1.53374,-14.33609 5.61228,-19.67759 2.735272,-3.58228 5.535222,-4.99628 9.893422,-4.99628 5.867259,0 10.195879,3.27241 13.292129,10.04877 2.24691,4.9175 3.0412,9.43185 3.0412,17.28456 0,7.85514 -0.7946,12.36886 -3.04279,17.28456 -2.07838,4.544388 -4.44749,7.159918 -7.95721,8.784868 -2.964504,1.37252 -7.952634,1.61653 -9.999996,0.48918 z m 8.964832,-8.873758 c 3.936974,-2.03589 6.443474,-10.80905 5.814444,-20.35152 -0.43899,-6.65952 -1.76686,-10.90359 -4.3973,-14.05444 -1.637154,-1.96104 -2.311955,-2.27889 -4.838225,-2.27889 -4.008781,0 -6.322034,1.70569 -8.439823,6.22314 -1.631864,3.48094 -1.770595,4.45592 -1.770595,12.44353 0,10.05486 1.151502,14.55369 4.431525,17.31365 2.329447,1.9601 6.198944,2.25643 9.199974,0.70453 z m 71.035164,8.397128 c -3.23927,-2.01866 -5.44567,-4.78189 -7.78416,-9.748648 l -2.1972,-4.66666 -0.009,-11 c -0.0105,-12.36149 0.84168,-16.36134 4.67491,-21.94304 2.8719,-4.18188 6.29258,-6.03212 11.17766,-6.04599 3.66558,-0.0104 4.0255,0.14206 7.08032,2.99949 5.11384,4.7834 8.05779,12.72026 8.05779,21.72374 0,3.15923 -0.24105,4.01456 -1.28951,4.57568 -0.71882,0.3847 -5.56772,0.69012 -10.9566,0.69012 -5.3169,0 -10.4699,0.30523 -11.45111,0.67828 -1.68884,0.6421 -1.75986,0.84661 -1.33111,3.83333 0.58154,4.05115 2.68067,8.45148 4.84312,10.15246 3.2766,2.577368 9.44422,1.46247 11.37942,-2.05704 2.45353,-4.46215 3.2764,-5.1454 5.61973,-4.66614 1.28765,0.26336 2.26777,0.91154 2.39758,1.5856 0.29928,1.55402 -2.57204,7.635948 -4.91072,10.401708 -3.73343,4.41523 -11.11279,6.09701 -15.3008,3.48711 z m 12.83333,-31.835498 c 2.66363,-0.71383 1.42692,-6.89088 -2.16415,-10.80943 -1.93803,-2.11475 -2.63113,-2.43705 -5.24085,-2.43705 -3.82235,0 -6.52513,2.39962 -8.42641,7.48123 -1.67552,4.47823 -1.66703,4.76171 0.16475,5.498 1.69649,0.68191 13.37593,0.88114 15.66666,0.26725 z m 27.63581,31.668058 c -7.70532,-3.81405 -11.99935,-17.000568 -10.33623,-31.741488 0.40374,-3.57851 1.3664,-8.18019 2.13925,-10.22595 1.68663,-4.46459 5.49747,-9.11294 8.4993,-10.36718 2.85781,-1.19407 8.47119,-1.16676 10.82935,0.0527 2.89062,1.4948 5.78504,5.20775 7.38964,9.47941 2.10576,5.60581 2.07127,7.00992 -0.1923,7.82808 -2.47661,0.89516 -3.69789,0.0599 -5.07967,-3.47425 -1.52739,-3.90654 -3.97319,-6.15943 -7.14933,-6.58544 -2.19313,-0.29416 -2.99658,-0.0485 -4.79762,1.46699 -4.41692,3.71659 -5.10486,6.09549 -5.10486,17.6526 0,9.40202 0.13351,10.58301 1.4814,13.10365 2.67222,4.99723 6.49094,6.681128 11.14156,4.91296 1.96076,-0.74548 4.08431,-3.8874 5.07576,-7.50991 0.69759,-2.54882 2.39783,-3.57351 5.07422,-3.05808 1.76924,0.34072 1.84048,2.05682 0.2964,7.14036 -1.56034,5.137068 -5.59447,10.335418 -9.18491,11.835598 -3.12507,1.30574 -6.78799,1.12043 -10.08196,-0.51005 z m 35.86454,0.66983 c -7.97174,-3.17877 -10.24784,-18.229678 -3.80186,-25.140148 1.93471,-2.07412 4.92156,-3.53315 11.80151,-5.76485 7.58999,-2.46202 7.77257,-2.66477 6.7031,-7.44365 -1.47881,-6.60802 -5.02731,-8.84424 -10.44337,-6.58126 -1.84735,0.77187 -2.6752,1.7241 -3.78726,4.35627 -1.43049,3.38588 -2.87955,4.39098 -5.5864,3.87483 -2.64476,-0.5043 -1.39647,-6.47363 2.46986,-11.81095 2.41767,-3.3375 4.57437,-4.78565 8.08255,-5.42717 5.67354,-1.03748 11.13307,2.4137 13.86522,8.76476 1.20564,2.80258 1.46066,5.2981 1.95885,19.16868 0.31502,8.77064 0.78896,16.29644 1.0532,16.724 0.26424,0.42755 1.23458,1.06409 2.1563,1.41453 1.56861,0.596378 1.64564,0.839058 1.20366,3.792208 -0.62574,4.18093 -0.79099,4.36489 -3.52272,3.92159 -2.44007,-0.39597 -5.48632,-2.71508 -5.48632,-4.17674 0,-1.79402 -1.42335,-1.58512 -3.14562,0.46168 -3.24427,3.8556 -9.24453,5.57136 -13.5207,3.86622 z m 11.7013,-10.056848 c 1.40617,-1.5344 2.40487,-3.53935 2.89016,-5.80219 0.91397,-4.26171 0.95827,-8.51268 0.0943,-9.04667 -0.7791,-0.4815 -11.25739,2.68058 -12.71667,3.83757 -3.255,2.58072 -4.25399,7.37713 -2.31677,11.12331 1.2667,2.44953 1.92387,2.705098 6.29054,2.44641 3.14602,-0.18639 3.8859,-0.51511 5.75847,-2.55843 z m -135.57366,8.770728 c -1.32306,-0.53074 -1.50991,-1.01529 -1.33334,-3.45774 l 0.20535,-2.840508 3.4591,-0.34798 c 1.9025,-0.19139 3.67462,-0.56352 3.93805,-0.82695 2.09171,-2.09171 2.09171,-33.55843 0,-35.65014 -0.26343,-0.26343 -2.03555,-0.63555 -3.93805,-0.82694 l -3.4591,-0.34799 v -3.66666 -3.66667 h 6.66667 6.66667 l 0.33333,3.66667 0.33333,3.66666 1.85756,-3.16004 c 2.11666,-3.60083 3.0876,-3.99383 9.16301,-3.70889 l 4.31277,0.20227 v 3.33333 3.33333 l -5.07951,0.66667 c -2.79372,0.36667 -5.55293,1.0653 -6.13158,1.55251 -0.57864,0.48722 -1.59287,2.28722 -2.25383,4 -1.0118,2.62193 -1.20175,5.18953 -1.20175,16.24436 0,9.87103 0.21477,13.3461 0.86522,14 0.47588,0.47839 2.87588,1.01979 5.33334,1.20313 l 4.46811,0.33333 0.20509,2.835228 c 0.1832,2.53264 0.0185,2.90617 -1.5434,3.5 -2.18375,0.83026 -20.7801,0.80019 -22.86704,-0.037 z"
       id="path1" />
  </g>
</svg>
