<?xml version="1.0" encoding="UTF-8" standalone="no"?>
<!-- Created with Inkscape (http://www.inkscape.org/) -->

<svg
   version="1.1"
   id="svg1"
   width="684"
   height="216"
   viewBox="0 0 684 216"
   xmlns="http://www.w3.org/2000/svg"
   xmlns:svg="http://www.w3.org/2000/svg">
  <defs
     id="defs1" />
  <g
     id="g1">
    <path
       style="fill:#000000;stroke-width:1.34838"
       d="m 349.2181,183.25562 c -1.5964,-0.80172 -3.94873,-2.68726 -5.22743,-4.19013 -1.27869,-1.50287 -3.174,-5.03251 -4.21181,-7.84365 -1.88691,-5.11117 -1.88691,-5.11117 -2.09883,-60.76611 -0.15172,-39.84628 0.0237,-57.01256 0.61771,-60.434572 0.45628,-2.628826 1.97443,-6.914966 3.37366,-9.524762 1.39923,-2.609796 3.84251,-5.686668 5.4295,-6.837498 2.77379,-2.011432 8.6798,-2.092393 152.64229,-2.092393 143.96249,0 149.8685,0.08093 152.64229,2.092393 1.587,1.15083 4.05451,4.272884 5.48334,6.937915 1.70733,3.184462 2.86909,6.83893 3.38904,10.660566 0.53797,3.954272 0.7184,23.261007 0.56385,60.334171 -0.20428,49.00133 -0.35118,54.88051 -1.45152,58.08999 -0.67333,1.96398 -2.26438,5.23146 -3.53567,7.26109 -1.27128,2.02965 -3.44161,4.51168 -4.82296,5.51567 -2.27819,1.65583 -16.3248,1.84537 -151.20122,2.04019 -119.32748,0.17236 -149.26288,-0.0731 -151.59224,-1.24287 z m 298.35385,-8.52231 c 1.45174,-1.19219 3.48339,-3.62 4.51476,-5.39512 1.03138,-1.77515 2.39199,-4.86326 3.0236,-6.86251 1.00664,-3.18637 1.14644,-9.91493 1.13275,-54.51912 -0.0144,-47.042022 -0.11495,-51.233231 -1.331,-55.507717 -0.72344,-2.542993 -2.55725,-6.259084 -4.07511,-8.25801 -1.51788,-1.99891 -3.88028,-4.132158 -5.24978,-4.740523 -1.57739,-0.700724 -55.00168,-1.108459 -145.76143,-1.112479 -105.30202,-0.0051 -143.98972,0.337251 -145.98182,1.290126 -1.49071,0.713042 -3.89025,2.849135 -5.33231,4.746861 -1.44205,1.897725 -3.21384,5.531032 -3.93729,8.074025 -1.21613,4.27481 -1.31654,8.467705 -1.33099,55.581557 -0.0156,50.95796 -0.0156,50.95796 1.91567,56.62306 1.41037,4.13708 2.89751,6.54991 5.51361,8.94562 3.58233,3.28051 3.58233,3.28051 148.92106,3.29118 141.6245,0.0102 145.4062,-0.0448 147.97828,-2.15695 z m -21.25989,-28.78335 c -0.45533,-1.40557 -2.57184,-6.45654 -4.70338,-11.22439 -3.8755,-8.66882 -3.8755,-8.66882 -7.91222,-5.49538 -2.22019,1.7454 -5.93571,3.7852 -8.25671,4.53288 -2.48799,0.80148 -5.95874,1.04537 -8.45644,0.5942 -2.33004,-0.42085 -6.03124,-1.83727 -8.22486,-3.14761 -2.75919,-1.64814 -5.21566,-4.34175 -7.97047,-8.73984 -2.88483,-4.60567 -4.33218,-8.04024 -5.25263,-12.46458 -0.8843,-4.25048 -1.15135,-7.95138 -0.8784,-12.173441 0.22227,-3.438368 1.24105,-8.556401 2.35174,-11.814361 1.07775,-3.16141 3.3666,-7.818654 5.08632,-10.349415 1.71972,-2.530777 4.88193,-5.884282 7.02714,-7.452217 2.14519,-1.567953 5.96297,-3.414873 8.48395,-4.104302 3.34257,-0.914098 5.82461,-0.914098 9.16719,0 2.52097,0.689429 6.28268,2.51202 8.35934,4.050225 2.07667,1.538206 5.00767,4.783559 6.51335,7.211874 1.50567,2.428316 3.37385,6.397035 4.15151,8.81937 0.77767,2.422335 1.58191,7.022386 1.78721,10.222334 0.2053,3.199948 0.0117,7.953523 -0.43011,10.563493 -0.44186,2.60996 -1.89541,7.33612 -3.2301,10.50256 -2.42672,5.75718 -2.42672,5.75718 2.32577,10.72658 2.61389,2.73317 5.47283,6.07701 6.35323,7.43077 0.96321,1.48106 1.60074,3.82138 1.60074,5.87619 0,2.11119 -0.66664,4.47912 -1.74625,6.20273 -0.96043,1.53335 -2.5499,2.78792 -3.53214,2.78792 -1.13245,0 -2.08881,-0.93507 -2.61378,-2.55559 z M 608.64372,125.1855 c 1.73268,-0.95676 4.59098,-3.42516 6.35178,-5.48533 1.90398,-2.22771 4.04241,-6.21406 5.27647,-9.83616 1.58994,-4.66663 2.07363,-7.56626 2.06909,-12.403759 -0.005,-4.143214 -0.51133,-7.875065 -1.47628,-10.85663 -0.8087,-2.498782 -2.38008,-5.892596 -3.49196,-7.541783 -1.11188,-1.649186 -3.46226,-4.204769 -5.22305,-5.679068 -2.74385,-2.297402 -4.21834,-2.680552 -10.3158,-2.680552 -6.0925,0 -7.57416,0.38436 -10.31579,2.67602 -1.7608,1.471794 -4.42913,4.538494 -5.92962,6.814872 -1.50049,2.276394 -3.2951,5.927795 -3.98804,8.114233 -0.69294,2.186455 -1.4604,5.654297 -1.70547,7.706345 -0.24508,2.052032 -0.0918,6.365092 0.34073,9.584582 0.6322,4.70631 1.50497,7.00093 4.45296,11.70745 2.20795,3.52502 4.9326,6.5672 6.84878,7.64694 1.75016,0.98618 5.60621,1.83341 8.569,1.88273 3.13841,0.0523 6.7018,-0.63641 8.5372,-1.64989 z m -215.61563,13.69509 c -1.7608,-0.91195 -4.4113,-3.25777 -5.88998,-5.21295 -1.47869,-1.95517 -3.28046,-5.42211 -4.00392,-7.7043 -0.72347,-2.28221 -1.53998,-5.81058 -1.81447,-7.84086 -0.45817,-3.38897 -0.34872,-3.7069 1.33604,-3.88068 1.00932,-0.1041 2.3451,-0.23191 2.96841,-0.28396 0.71019,-0.0593 1.49594,1.60155 2.10461,4.4486 0.53422,2.4988 2.07937,6.17349 3.43365,8.16601 1.3543,1.99251 3.61082,3.96673 5.01449,4.38714 1.40368,0.42041 3.99665,0.41855 5.76217,-0.003 1.76911,-0.42354 4.08227,-1.96631 5.15316,-3.43693 1.60038,-2.19775 1.9431,-3.6037 1.9431,-7.97109 0,-4.48495 -0.33681,-5.78313 -2.18409,-8.41826 -1.29907,-1.85309 -4.75849,-4.41169 -8.53721,-6.31412 -3.49421,-1.75918 -7.88535,-4.42213 -9.75807,-5.917639 -1.87273,-1.495527 -4.05075,-4.362313 -4.84006,-6.370643 -1.14786,-2.920658 -1.38839,-5.154272 -1.20172,-11.159654 0.18754,-6.033461 0.60629,-8.288678 2.13203,-11.482254 1.04424,-2.185757 3.11725,-4.915853 4.60667,-6.066853 1.48943,-1.151018 4.87166,-2.303092 7.51609,-2.560184 4.13426,-0.401925 5.35764,-0.03816 8.72991,2.595945 2.43764,1.904046 4.5952,4.639287 5.70106,7.227548 0.97856,2.290297 2.11344,6.132446 2.52194,8.538119 0.40851,2.405673 0.64165,4.532345 0.51811,4.725922 -0.12354,0.193576 -1.42177,0.708969 -2.88498,1.14531 -2.22576,0.663753 -2.72819,0.448368 -3.07552,-1.31846 -0.22836,-1.161513 -0.86789,-3.776471 -1.42121,-5.811005 -0.55331,-2.034551 -2.05063,-4.715989 -3.32737,-5.958786 -1.50008,-1.460175 -3.57984,-2.259596 -5.87853,-2.259596 -2.30302,0 -4.3786,0.799574 -5.88705,2.267893 -1.28144,1.247347 -2.6633,3.667927 -3.0708,5.379061 -0.40749,1.711133 -0.54221,4.801975 -0.29938,6.868539 0.29733,2.530301 1.14755,4.442865 2.60341,5.856358 1.18904,1.154443 5.27668,3.67539 9.08364,5.602112 3.80696,1.926706 7.98967,4.663397 9.29489,6.081507 1.30523,1.41811 3.02214,3.97708 3.81535,5.6866 0.93669,2.01876 1.54906,5.46702 1.74709,9.83775 0.24781,5.46967 0.006,7.58093 -1.29611,11.27735 -1.04207,2.96013 -2.79528,5.58557 -5.02187,7.52033 -2.29591,1.99499 -4.89597,3.14448 -7.90645,3.49543 -2.85017,0.33226 -5.65279,-0.0816 -7.68703,-1.13516 z m 38.77315,-1.34887 c -1.17387,-0.98801 -2.897,-2.88423 -3.82918,-4.21384 -0.93218,-1.32962 -2.44975,-4.97306 -3.37236,-8.09655 -1.28645,-4.35522 -1.6791,-7.63412 -1.68444,-14.06591 -0.005,-4.61276 0.3872,-10.48708 0.86892,-13.054041 0.50672,-2.700111 2.23085,-6.899769 4.09075,-9.964306 2.23489,-3.682425 4.18852,-5.711286 6.40897,-6.655847 1.75963,-0.74853 4.63516,-1.044364 6.40291,-0.658727 1.76484,0.385007 4.63193,2.103382 6.37131,3.818621 2.14124,2.111525 3.74073,4.912462 4.95311,8.673651 1.18035,3.661861 1.88864,8.013199 2.07827,12.767779 0.28767,7.21273 0.28767,7.21273 -12.60101,7.21273 -11.80661,0 -12.88739,0.16679 -12.87308,1.98768 0.008,1.09321 0.62206,4.12008 1.36327,6.72635 0.74118,2.60625 2.16261,5.59121 3.15871,6.6332 0.99611,1.042 3.03529,2.15669 4.53153,2.47709 1.63836,0.35084 3.76526,-0.11449 5.34727,-1.16974 1.44478,-0.96376 3.19413,-3.18862 3.88744,-4.94413 1.07281,-2.71637 1.65803,-3.13933 3.92848,-2.83932 1.58956,0.21003 2.66788,0.94454 2.66788,1.81725 0,0.80561 -0.93168,3.51807 -2.07039,6.02769 -1.14321,2.51958 -3.47395,5.64774 -5.20465,6.98531 -2.23478,1.72719 -4.44797,2.40931 -7.71184,2.37688 -2.7483,-0.0273 -5.43047,-0.76332 -6.71187,-1.84182 z m 16.00727,-35.08309 c 0,-1.59278 -0.48563,-4.395262 -1.0792,-6.227752 -0.59355,-1.832507 -2.0183,-4.107146 -3.16611,-5.054774 -1.14782,-0.94761 -3.51892,-1.72294 -5.26914,-1.72294 -2.42021,0 -3.72949,0.735224 -5.46782,3.070465 -1.2571,1.688747 -2.7223,4.739023 -3.25604,6.778396 -0.53373,2.039375 -0.97042,4.235485 -0.97042,4.880245 0,0.74797 3.47649,1.1723 9.60437,1.1723 9.60436,0 9.60436,0 9.60436,-2.89594 z m 24.54447,35.37132 c -1.17386,-0.83058 -3.03375,-2.85883 -4.13308,-4.50719 -1.09932,-1.64839 -2.69692,-5.42108 -3.55021,-8.38379 -1.20651,-4.18907 -1.553,-7.53994 -1.5584,-15.07146 -0.006,-8.12003 0.28092,-10.57782 1.77483,-15.212388 0.97997,-3.040207 2.91569,-6.992877 4.30161,-8.783711 1.507,-1.947303 4.13787,-3.797904 6.54531,-4.604088 3.43973,-1.15187 4.5911,-1.063344 7.91286,0.608348 2.66101,1.339177 4.607,3.26486 6.16844,6.10408 1.25459,2.281267 2.72635,5.849168 3.27059,7.92868 0.54424,2.079513 1.19008,6.844519 1.43522,10.588889 0.44571,6.80796 0.44571,6.80796 -12.74226,6.80796 -13.18795,0 -13.18795,0 -12.6643,3.6914 0.288,2.03026 1.04055,5.2836 1.67232,7.22963 0.63178,1.94604 2.25164,4.37385 3.59969,5.39513 1.34806,1.02127 3.45902,1.85688 4.69099,1.85688 1.23199,0 3.15625,-0.75647 4.27613,-1.68103 1.1199,-0.92457 2.67075,-2.96904 3.44638,-4.54326 1.09566,-2.2238 2.05786,-2.86224 4.31381,-2.86224 2.87243,0 2.89566,0.0336 2.16451,3.1235 -0.4065,1.71792 -1.59912,4.57586 -2.65027,6.351 -1.05116,1.77513 -3.09897,4.20293 -4.55071,5.39513 -1.80019,1.47832 -4.0625,2.15347 -7.11435,2.12315 -2.46115,-0.0245 -5.43524,-0.72404 -6.60911,-1.55462 z m 15.73227,-36.16677 c -0.24908,-2.030275 -1.04028,-4.969196 -1.75824,-6.530947 -0.71795,-1.561735 -2.07488,-3.470892 -3.01538,-4.242559 -0.94051,-0.771667 -2.99059,-1.403015 -4.55574,-1.403015 -1.56515,0 -3.63649,0.638794 -4.60297,1.419558 -0.96647,0.780765 -2.48716,3.148854 -3.37931,5.26239 -0.89214,2.113553 -1.62208,5.045023 -1.62208,6.514403 0,2.67156 0,2.67156 9.69329,2.67156 9.69328,0 9.69328,0 9.24043,-3.69139 z m 16.63798,-1.48834 c 0,-38.118349 0,-38.118349 2.66788,-37.765832 2.66788,0.352517 2.66788,0.352517 2.85962,25.067804 0.19176,24.715288 0.19176,24.715288 8.87709,9.370473 8.68532,-15.344831 8.68532,-15.344831 12.08048,-15.344831 1.86733,0 3.39517,0.448539 3.39517,0.996746 0,0.548206 -0.48495,1.639287 -1.07766,2.424618 -0.59271,0.785314 -3.62018,5.874179 -6.72773,11.308576 -5.65009,9.880726 -5.65009,9.880726 0.93287,24.550996 3.62061,8.06866 6.82706,15.30918 7.12543,16.09004 0.40548,1.06122 -0.32156,1.40792 -2.87881,1.37286 -3.4213,-0.0468 -3.4213,-0.0468 -9.09525,-13.22133 -5.67398,-13.17439 -5.67398,-13.17439 -9.07079,-7.11955 -3.29518,5.87365 -3.39683,6.26926 -3.39683,13.22132 0,7.16648 0,7.16648 -2.84573,7.16648 -2.84574,0 -2.84574,0 -2.84574,-38.11837 z M 22.69774,169.80208 c -0.187005,-0.78089 -0.256994,-32.85346 -0.15553,-71.272403 0.184479,-69.8526 0.184479,-69.8526 3.563792,-70.198796 3.37931,-0.346179 3.37931,-0.346179 3.37931,32.086783 0,32.432944 0,32.432944 22.054454,32.432944 22.054456,0 22.054456,0 22.054456,-32.370724 0,-32.370725 0,-32.370725 3.20145,-32.370725 3.20146,0 3.20146,0 3.20146,71.556339 0,71.556342 0,71.556342 -3.19087,71.556342 -3.19087,0 -3.19087,0 -3.37931,-33.79049 -0.18845,-33.79051 -0.18845,-33.79051 -22.065045,-34.09087 -21.876595,-0.30037 -21.876595,-0.30037 -21.876595,33.7905 0,34.09086 0,34.09086 -3.223781,34.09086 -1.923396,0 -3.360932,-0.57269 -3.563791,-1.41976 z m 85.40103,-33.65523 c -1.17387,-0.49008 -3.1188,-1.71015 -4.32207,-2.71127 -1.20328,-1.00111 -3.35146,-3.87662 -4.773748,-6.39004 -1.60466,-2.83567 -3.0328,-7.02364 -3.76343,-11.0361 -0.8414,-4.62083 -1.08893,-9.25344 -0.86729,-16.232314 0.22286,-7.017769 0.73869,-11.087553 1.83297,-14.46203 0.83755,-2.582775 2.5296,-6.303296 3.7601,-8.267824 1.230498,-1.964494 3.243768,-4.444228 4.473938,-5.510486 1.58034,-1.369775 3.90674,-1.937541 7.92813,-1.934849 4.45297,0.0034 6.31073,0.532993 8.53721,2.435693 1.56516,1.337541 3.70897,3.884282 4.76404,5.659407 1.05506,1.775143 2.64796,5.783099 3.53979,8.906584 1.32428,4.638145 1.62149,7.656852 1.62149,16.469319 0,8.50214 -0.3119,11.87408 -1.47083,15.90141 -0.80895,2.81114 -2.32929,6.73248 -3.37853,8.71408 -1.04925,1.9816 -3.26086,4.64693 -4.9147,5.92295 -1.65385,1.27604 -4.76779,2.56901 -6.91988,2.8733 -2.15209,0.30428 -4.87333,0.15231 -6.04719,-0.33783 z m 10.4266,-12.34719 c 1.03915,-0.97964 2.63989,-3.87167 3.55717,-6.42673 1.39038,-3.8729 1.66778,-6.2513 1.66778,-14.29999 0,-8.207987 -0.26647,-10.403267 -1.77859,-14.65264 -0.99744,-2.803015 -2.87218,-5.951477 -4.2686,-7.168736 -1.79698,-1.566419 -3.44531,-2.03714 -5.92233,-1.691319 -1.88777,0.263566 -4.28885,1.474947 -5.33575,2.691967 -1.0469,1.21702 -2.62377,4.463395 -3.50417,7.214156 -1.24783,3.898782 -1.59729,6.888968 -1.58511,13.563282 0.0107,5.85784 0.42834,9.99678 1.32239,13.10517 0.71872,2.49878 1.91223,5.39416 2.65226,6.43416 0.74001,1.04 2.46599,2.41537 3.8355,3.05636 1.36951,0.64099 3.61052,0.89319 4.98004,0.56045 1.36951,-0.33273 3.34024,-1.40649 4.37941,-2.38613 z m 81.34839,12.34719 c -1.17387,-0.49008 -3.09474,-1.69964 -4.26861,-2.6879 -1.17386,-0.98824 -3.13892,-3.50156 -4.36682,-5.58512 -1.22788,-2.08357 -2.80886,-5.57723 -3.51329,-7.76366 -0.85489,-2.65341 -1.37987,-7.37465 -1.57874,-14.19768 -0.16388,-5.62229 0.0486,-12.274677 0.47217,-14.783067 0.42357,-2.508407 1.71362,-6.935888 2.86676,-9.83886 1.23388,-3.106193 3.42292,-6.519021 5.31973,-8.293721 1.93538,-1.810767 4.79245,-3.274196 7.1511,-3.662832 2.30194,-0.3793 5.26384,-0.05009 7.15503,0.795246 1.77488,0.793373 4.61988,3.399846 6.32223,5.792145 1.75241,2.46268 3.74148,6.748257 4.58498,9.878676 0.81939,3.040957 1.70858,8.938051 1.97597,13.104658 0.48616,7.575655 0.48616,7.575655 -14.29017,7.575655 -14.77632,0 -14.77632,0 -14.37903,4.72888 0.21851,2.60089 1.00077,6.01934 1.73836,7.59656 0.73758,1.57724 2.15829,3.84179 3.1571,5.03235 1.13105,1.34818 3.12704,2.23139 5.2918,2.34155 1.91166,0.0973 4.51341,-0.52202 5.78163,-1.37625 1.26823,-0.85423 2.9751,-3.28192 3.79305,-5.39486 1.1195,-2.89188 1.95656,-3.81373 3.38561,-3.72849 1.04413,0.0624 2.60461,0.44561 3.46773,0.85186 1.53365,0.72185 1.54236,0.82711 0.38353,4.63172 -0.65218,2.14119 -2.28516,5.64827 -3.62884,7.79348 -1.34369,2.14522 -3.49357,4.60114 -4.77751,5.45762 -1.28394,0.85648 -4.03882,1.79705 -6.12195,2.09016 -2.08314,0.29312 -4.74796,0.13204 -5.92182,-0.35812 z m 14.30939,-43.580201 c -0.24908,-2.030258 -1.03218,-4.969179 -1.74022,-6.53093 -0.70806,-1.561751 -2.38513,-3.733196 -3.72682,-4.825453 -1.34171,-1.092239 -3.49267,-1.986693 -4.77996,-1.987664 -1.28727,-9.72e-4 -3.60401,1.027344 -5.14832,2.285151 -1.80724,1.471965 -3.31827,3.884334 -4.24026,6.769639 -0.78784,2.46549 -1.43243,5.269749 -1.43243,6.231688 0,1.497657 1.54615,1.748973 10.76043,1.748973 10.76044,0 10.76044,0 10.30758,-3.691404 z m 30.66282,43.027871 c -1.87291,-0.83846 -4.59415,-3.05452 -6.04719,-4.92461 -1.45304,-1.87008 -3.60232,-6.38014 -4.77619,-10.02239 -1.93387,-6.00036 -2.13431,-7.64314 -2.13431,-17.49353 0,-8.948156 0.28992,-11.875917 1.63887,-16.550369 0.90138,-3.123485 2.50211,-7.131441 3.55718,-8.906584 1.05506,-1.775125 3.19888,-4.321866 4.76403,-5.659407 2.2198,-1.896976 4.09763,-2.436221 8.53721,-2.451555 4.9628,-0.01721 6.12464,0.386848 9.0749,3.15555 2.34723,2.202793 4.03375,4.985585 5.50693,9.086513 1.16793,3.251214 2.12652,6.76083 2.13019,7.799147 0.005,1.333521 -0.86593,2.123213 -2.96515,2.689428 -2.288,0.617139 -3.14747,0.39833 -3.73503,-0.950933 -0.41976,-0.963898 -1.3162,-3.345395 -1.99209,-5.292221 -0.67872,-1.954971 -2.34065,-4.281318 -3.71218,-5.196217 -1.3658,-0.911083 -3.53404,-1.648096 -4.81829,-1.637822 -1.28427,0.01022 -3.5873,1.160286 -5.11786,2.555583 -1.64375,1.498475 -3.39099,4.396558 -4.2686,7.080159 -1.167,3.568532 -1.48576,6.614532 -1.48576,14.197678 0,8.04869 0.27739,10.42709 1.66778,14.29999 0.91728,2.55506 2.63086,5.55383 3.80797,6.66394 1.18023,1.11306 3.62321,2.04685 5.44655,2.08185 1.83697,0.0353 4.36164,-0.81683 5.68088,-1.91737 1.56851,-1.30846 2.84763,-3.68841 3.76833,-7.01136 1.33594,-4.82171 1.5204,-5.03053 4.4434,-5.03053 1.67727,0 3.2386,0.30178 3.46962,0.6706 0.23102,0.36882 -0.0421,2.76153 -0.60682,5.31713 -0.56476,2.55558 -1.83178,6.33135 -2.81559,8.39059 -0.98381,2.05924 -3.14764,5.01549 -4.80853,6.56946 -1.77777,1.66332 -4.62076,3.06934 -6.91236,3.41857 -2.26964,0.34587 -5.31238,-0.0424 -7.29789,-0.93129 z m 39.22851,-0.16697 c -1.98631,-1.0141 -4.15806,-3.23767 -5.44137,-5.57112 -1.18205,-2.14938 -2.34242,-5.83697 -2.59868,-8.25844 -0.27374,-2.58683 -0.0852,-6.17727 0.46133,-8.78442 0.52036,-2.48238 2.01943,-5.81784 3.43017,-7.63217 1.61483,-2.07682 4.524,-4.01089 8.18148,-5.439167 3.1216,-1.21903 7.51647,-2.79344 9.76638,-3.498696 3.76336,-1.179674 4.09054,-1.525836 4.08808,-4.325274 -9.4e-4,-1.673617 -0.64189,-4.716823 -1.42319,-6.76267 -0.7813,-2.04583 -2.30079,-4.262577 -3.37665,-4.926075 -1.07586,-0.663514 -3.31212,-0.969946 -4.96945,-0.680977 -1.65733,0.288985 -3.85895,1.410017 -4.89251,2.491182 -1.03355,1.081166 -2.22886,3.444808 -2.65625,5.252542 -0.70781,2.993815 -1.08023,3.28677 -4.17828,3.28677 -2.95437,0 -3.4012,-0.305835 -3.4012,-2.328034 0,-1.280432 0.45949,-3.746639 1.02109,-5.480483 0.56161,-1.733844 2.29974,-4.996711 3.86254,-7.250804 1.5628,-2.254092 4.06464,-4.640633 5.55967,-5.303432 1.49502,-0.662782 4.31896,-1.196677 6.27541,-1.186455 1.95644,0.01022 4.83775,0.965176 6.4029,2.122071 1.56516,1.156913 3.70577,3.57349 4.75692,5.370167 1.05114,1.796695 2.30578,4.800068 2.78808,6.674162 0.5054,1.963847 1.05204,11.587885 1.29027,22.716313 0.41337,19.30884 0.41337,19.30884 2.7641,19.66935 2.28973,0.35116 2.3451,0.48377 2.1343,5.11117 -0.18512,4.06357 -0.46915,4.8076 -1.96374,5.14429 -0.96102,0.21647 -2.97725,-0.1947 -4.48049,-0.91374 -1.74633,-0.83532 -3.20178,-2.53759 -4.03106,-4.71464 -0.95942,-2.51877 -1.40299,-2.97007 -1.7009,-1.73059 -0.22166,0.9222 -1.79242,2.97667 -3.49057,4.56551 -1.84314,1.72447 -4.65643,3.12708 -6.98014,3.48008 -2.46365,0.37424 -5.10606,-0.0283 -7.19824,-1.09642 z m 12.84046,-10.71742 c 1.65648,-1.34916 3.1749,-3.74715 3.88455,-6.13468 0.64076,-2.15584 1.16505,-6.30471 1.16505,-9.21971 0,-4.51096 -0.18535,-5.21383 -1.24501,-4.7211 -0.68476,0.31841 -4.12632,1.46807 -7.64793,2.55479 -5.14786,1.58856 -6.8027,2.61218 -8.44257,5.22219 -1.68933,2.68875 -1.96391,3.87258 -1.59858,6.89224 0.2426,2.00525 1.11588,4.54035 1.94063,5.63357 1.02221,1.35497 2.729,1.98768 5.36195,1.98768 2.42551,0 4.87413,-0.82403 6.58191,-2.21498 z m -155.02305,5.62237 c 0,-4.54326 0,-4.54326 5.33575,-4.54326 5.33576,0 5.33576,0 5.33576,-22.7163 0,-22.71629 0,-22.71629 -5.33576,-22.71629 -5.33575,0 -5.33575,0 -5.33575,-5.111167 0,-5.111167 0,-5.111167 8.18148,-5.111167 8.1815,0 8.1815,0 8.18618,5.395127 0.005,5.395109 0.005,5.395109 1.3205,2.20908 0.7237,-1.752329 2.08221,-4.04358 3.01891,-5.09171 1.26566,-1.416203 3.25629,-1.910674 7.75028,-1.925139 6.04719,-0.01942 6.04719,-0.01942 6.26242,4.692529 0.21525,4.711968 0.21525,4.711968 -6.20963,5.11115 -5.7938,0.359996 -6.60597,0.688423 -8.26853,3.343828 -1.01399,1.619541 -2.1338,4.9418 -2.48845,7.382791 -0.35465,2.440991 -0.65244,11.210478 -0.66178,19.487718 -0.017,15.04955 -0.017,15.04955 6.38594,15.04955 6.4029,0 6.4029,0 6.4029,4.54326 0,4.54327 0,4.54327 -14.94011,4.54327 -14.94011,0 -14.94011,0 -14.94011,-4.54327 z"
       id="path1" />
  </g>
</svg>
