<svg width="376" height="118" viewBox="0 0 376 118" fill="none" xmlns="http://www.w3.org/2000/svg">
<rect x="188" y="18.9383" width="173.426" height="78.6667" rx="5" fill="#0CC18A"/>
<path d="M191.968 100.112C191.09 99.6739 189.797 98.6439 189.094 97.8228C188.391 97.0018 187.349 95.0736 186.779 93.5379C185.742 90.7457 185.742 90.7457 185.625 60.3416C185.542 38.5737 185.638 29.1958 185.965 27.3264C186.216 25.8903 187.05 23.5488 187.819 22.1231C188.588 20.6973 189.932 19.0165 190.804 18.3878C192.329 17.2889 195.575 17.2447 274.713 17.2447C353.85 17.2447 357.096 17.2889 358.621 18.3878C359.494 19.0165 360.85 20.722 361.635 22.1779C362.574 23.9176 363.213 25.914 363.498 28.0017C363.794 30.1619 363.893 40.7091 363.808 60.9621C363.696 87.7313 363.615 90.9431 363.01 92.6964C362.64 93.7693 361.766 95.5544 361.067 96.6631C360.368 97.7719 359.175 99.1278 358.416 99.6763C357.163 100.581 349.442 100.684 275.299 100.791C209.704 100.885 193.248 100.751 191.968 100.112ZM355.975 95.4562C356.773 94.8049 357.89 93.4786 358.457 92.5089C359.024 91.5391 359.772 89.8521 360.119 88.7599C360.672 87.0192 360.749 83.3434 360.742 58.9763C360.734 33.2774 360.679 30.9878 360.01 28.6526C359.612 27.2634 358.604 25.2333 357.77 24.1413C356.936 23.0493 355.637 21.8839 354.884 21.5516C354.017 21.1688 324.649 20.946 274.758 20.9438C216.873 20.9411 195.606 21.1281 194.511 21.6486C193.691 22.0382 192.372 23.2051 191.579 24.2418C190.787 25.2785 189.813 27.2634 189.415 28.6526C188.747 30.9879 188.691 33.2785 188.683 59.0166C188.675 86.8548 188.675 86.8548 189.736 89.9496C190.512 92.2097 191.329 93.5278 192.767 94.8366C194.737 96.6287 194.737 96.6287 274.63 96.6345C352.482 96.6401 354.561 96.61 355.975 95.4562ZM344.288 79.7319C344.038 78.9641 342.875 76.2048 341.703 73.6001C339.573 68.8644 339.573 68.8644 337.354 70.598C336.133 71.5515 334.091 72.6658 332.815 73.0743C331.447 73.5121 329.539 73.6454 328.166 73.3989C326.885 73.169 324.851 72.3952 323.645 71.6794C322.128 70.779 320.778 69.3075 319.263 66.9048C317.678 64.3888 316.882 62.5125 316.376 60.0955C315.89 57.7735 315.743 55.7517 315.893 53.4452C316.015 51.5668 316.575 48.7708 317.186 46.991C317.778 45.264 319.037 42.7197 319.982 41.3372C320.927 39.9546 322.666 38.1226 323.845 37.2661C325.024 36.4095 327.123 35.4005 328.509 35.0239C330.346 34.5245 331.71 34.5245 333.548 35.0239C334.934 35.4005 337.001 36.3962 338.143 37.2365C339.285 38.0768 340.896 39.8498 341.723 41.1763C342.551 42.5029 343.578 44.671 344.006 45.9943C344.433 47.3176 344.875 49.8306 344.988 51.5788C345.101 53.3269 344.994 55.9237 344.752 57.3496C344.509 58.7754 343.71 61.3573 342.976 63.0871C341.642 66.2322 341.642 66.2322 344.254 68.947C345.691 70.4401 347.263 72.2668 347.747 73.0064C348.276 73.8155 348.627 75.094 348.627 76.2165C348.627 77.3698 348.26 78.6634 347.667 79.605C347.139 80.4427 346.265 81.1281 345.725 81.1281C345.103 81.1281 344.577 80.6172 344.288 79.7319ZM334.576 68.3884C335.528 67.8657 337.1 66.5173 338.068 65.3918C339.114 64.1748 340.29 61.9971 340.968 60.0183C341.842 57.469 342.108 55.8849 342.106 53.2422C342.103 50.9788 341.824 48.9401 341.294 47.3113C340.849 45.9462 339.986 44.0922 339.374 43.1912C338.763 42.2903 337.471 40.8942 336.503 40.0888C334.995 38.8337 334.184 38.6244 330.833 38.6244C327.484 38.6244 326.669 38.8344 325.162 40.0863C324.194 40.8903 322.727 42.5656 321.902 43.8092C321.078 45.0528 320.091 47.0476 319.71 48.242C319.329 49.4365 318.907 51.3309 318.773 52.4519C318.638 53.573 318.722 55.9292 318.96 57.688C319.307 60.259 319.787 61.5126 321.408 64.0837C322.621 66.0094 324.119 67.6713 325.173 68.2612C326.135 68.7999 328.254 69.2628 329.883 69.2897C331.608 69.3183 333.567 68.9421 334.576 68.3884ZM216.05 75.87C215.083 75.3718 213.626 74.0903 212.813 73.0222C212 71.9541 211.009 70.0601 210.612 68.8133C210.214 67.5666 209.765 65.639 209.614 64.5299C209.362 62.6785 209.423 62.5048 210.349 62.4099C210.904 62.353 211.638 62.2832 211.98 62.2548C212.371 62.2224 212.803 63.1297 213.137 64.685C213.431 66.0501 214.28 68.0576 215.025 69.1461C215.769 70.2346 217.01 71.3131 217.781 71.5428C218.553 71.7724 219.978 71.7714 220.949 71.5411C221.921 71.3097 223.193 70.4669 223.782 69.6635C224.661 68.4629 224.85 67.6949 224.85 65.309C224.85 62.8589 224.665 62.1497 223.649 60.7101C222.935 59.6978 221.033 58.3 218.956 57.2607C217.035 56.2997 214.622 54.8449 213.592 54.0279C212.563 53.2109 211.365 51.6448 210.931 50.5477C210.3 48.9521 210.168 47.7319 210.271 44.4512C210.374 41.1551 210.604 39.9231 211.443 38.1785C212.017 36.9844 213.156 35.493 213.975 34.8642C214.794 34.2354 216.653 33.606 218.107 33.4656C220.379 33.246 221.052 33.4447 222.906 34.8837C224.246 35.9239 225.432 37.4182 226.04 38.8321C226.578 40.0833 227.201 42.1822 227.426 43.4965C227.651 44.8107 227.779 45.9725 227.711 46.0782C227.643 46.184 226.929 46.4655 226.125 46.7039C224.901 47.0665 224.625 46.9488 224.434 45.9836C224.309 45.3491 223.957 43.9205 223.653 42.8091C223.349 41.6976 222.526 40.2328 221.824 39.5538C220.999 38.7561 219.856 38.3194 218.592 38.3194C217.326 38.3194 216.186 38.7562 215.356 39.5584C214.652 40.2398 213.892 41.5621 213.668 42.4969C213.444 43.4317 213.37 45.1202 213.504 46.2492C213.667 47.6315 214.135 48.6763 214.935 49.4485C215.588 50.0791 217.835 51.4563 219.928 52.5089C222.021 53.5614 224.32 55.0565 225.038 55.8312C225.755 56.6059 226.699 58.0039 227.135 58.9378C227.65 60.0406 227.986 61.9244 228.095 64.3121C228.232 67.3002 228.099 68.4535 227.383 70.4729C226.81 72.09 225.846 73.5242 224.622 74.5812C223.36 75.671 221.931 76.299 220.276 76.4907C218.709 76.6722 217.169 76.4462 216.05 75.8706V75.87ZM237.364 75.1331C236.719 74.5933 235.772 73.5575 235.259 72.8311C234.747 72.1047 233.913 70.1143 233.406 68.408C232.698 66.0287 232.483 64.2375 232.48 60.7238C232.477 58.2039 232.693 54.9948 232.957 53.5924C233.236 52.1174 234.184 49.8231 235.206 48.149C236.435 46.1373 237.508 45.0289 238.729 44.5129C239.696 44.104 241.277 43.9424 242.249 44.1531C243.219 44.3634 244.795 45.3021 245.751 46.2392C246.928 47.3927 247.807 48.9228 248.474 50.9775C249.123 52.978 249.512 55.3551 249.616 57.9525C249.775 61.8928 249.775 61.8928 242.689 61.8928C236.199 61.8928 235.605 61.9839 235.613 62.9787C235.617 63.5759 235.955 65.2295 236.362 66.6533C236.77 68.077 237.551 69.7077 238.099 70.277C238.646 70.8462 239.767 71.4551 240.59 71.6302C241.49 71.8218 242.66 71.5676 243.529 70.9912C244.324 70.4647 245.285 69.2492 245.666 68.2902C246.256 66.8063 246.578 66.5752 247.826 66.7391C248.7 66.8538 249.292 67.2551 249.292 67.7318C249.292 68.1719 248.78 69.6538 248.154 71.0247C247.526 72.4012 246.245 74.1101 245.293 74.8408C244.065 75.7844 242.848 76.157 241.054 76.1393C239.543 76.1244 238.069 75.7223 237.364 75.1331ZM246.164 55.9673C246.164 55.0972 245.897 53.5662 245.57 52.5651C245.244 51.564 244.461 50.3214 243.83 49.8037C243.199 49.2861 241.896 48.8625 240.934 48.8625C239.603 48.8625 238.883 49.2641 237.928 50.5399C237.237 51.4624 236.431 53.1288 236.138 54.2429C235.845 55.357 235.604 56.5567 235.604 56.909C235.604 57.3176 237.516 57.5494 240.884 57.5494C246.164 57.5494 246.164 57.5494 246.164 55.9673ZM259.656 75.2906C259.011 74.8368 257.988 73.7288 257.384 72.8283C256.78 71.9278 255.901 69.8668 255.432 68.2483C254.769 65.9598 254.579 64.1292 254.576 60.0148C254.572 55.5788 254.73 54.2362 255.551 51.7043C256.09 50.0434 257.154 47.8841 257.916 46.9058C258.744 45.842 260.191 44.831 261.514 44.3906C263.405 43.7613 264.038 43.8097 265.864 44.7229C267.327 45.4545 268.396 46.5065 269.255 48.0576C269.944 49.3038 270.753 51.253 271.052 52.389C271.352 53.525 271.707 56.1281 271.841 58.1737C272.086 61.8928 272.086 61.8928 264.837 61.8928C257.587 61.8928 257.587 61.8928 257.875 63.9094C258.034 65.0185 258.447 66.7958 258.795 67.8589C259.142 68.9221 260.032 70.2484 260.773 70.8063C261.514 71.3642 262.675 71.8207 263.352 71.8207C264.029 71.8207 265.087 71.4074 265.703 70.9023C266.318 70.3973 267.171 69.2804 267.597 68.4204C268.199 67.2055 268.728 66.8567 269.968 66.8567C271.547 66.8567 271.56 66.8751 271.158 68.5631C270.935 69.5016 270.279 71.0629 269.701 72.0326C269.124 73.0024 267.998 74.3287 267.2 74.98C266.21 75.7876 264.967 76.1564 263.289 76.1398C261.936 76.1265 260.301 75.7443 259.656 75.2906ZM268.304 55.5328C268.167 54.4237 267.732 52.8181 267.338 51.965C266.943 51.1118 266.197 50.0688 265.68 49.6473C265.163 49.2257 264.036 48.8808 263.176 48.8808C262.315 48.8808 261.177 49.2298 260.645 49.6563C260.114 50.0828 259.278 51.3765 258.788 52.5311C258.297 53.6857 257.896 55.2872 257.896 56.0899C257.896 57.5494 257.896 57.5494 263.225 57.5494C268.553 57.5494 268.553 57.5494 268.304 55.5328ZM277.45 54.7197C277.45 33.8958 277.45 33.8958 278.917 34.0884C280.383 34.281 280.383 34.281 280.489 47.7828C280.594 61.2847 280.594 61.2847 285.368 52.9019C290.143 44.5191 290.143 44.5191 292.009 44.5191C293.036 44.5191 293.876 44.7641 293.876 45.0636C293.876 45.3631 293.609 45.9591 293.283 46.3881C292.957 46.8171 291.293 49.5972 289.585 52.566C286.479 57.9638 286.479 57.9638 290.098 65.9781C292.088 70.386 293.851 74.3414 294.015 74.768C294.237 75.3478 293.838 75.5372 292.432 75.518C290.551 75.4924 290.551 75.4924 287.432 68.2952C284.313 61.0981 284.313 61.0981 282.446 64.4059C280.635 67.6146 280.579 67.8307 280.579 71.6286C280.579 75.5436 280.579 75.5436 279.014 75.5436C277.45 75.5436 277.45 75.5436 277.45 54.7197ZM12.4771 92.7623C12.3743 92.3357 12.3358 74.8145 12.3916 53.8264C12.493 15.6662 12.493 15.6662 14.3506 15.4771C16.2082 15.288 16.2082 15.288 16.2082 33.006C16.2082 50.724 16.2082 50.724 28.3317 50.724C40.4552 50.724 40.4552 50.724 40.4552 33.04C40.4552 15.356 40.4552 15.356 42.2151 15.356C43.975 15.356 43.975 15.356 43.975 54.4469C43.975 93.5379 43.975 93.5379 42.2209 93.5379C40.4669 93.5379 40.4669 93.5379 40.3633 75.0783C40.2597 56.6186 40.2597 56.6186 28.234 56.4545C16.2082 56.2905 16.2082 56.2905 16.2082 74.9142C16.2082 93.5379 16.2082 93.5379 14.4361 93.5379C13.3788 93.5379 12.5886 93.225 12.4771 92.7623ZM59.4226 74.3765C58.7774 74.1088 57.7082 73.4423 57.0468 72.8954C56.3853 72.3485 55.2044 70.7776 54.4226 69.4045C53.5405 67.8554 52.7555 65.5675 52.3538 63.3756C51.8913 60.8512 51.7552 58.3204 51.8771 54.5079C51.9996 50.6741 52.2831 48.4508 52.8847 46.6073C53.3451 45.1964 54.2752 43.1639 54.9516 42.0907C55.628 41.0175 56.7347 39.6628 57.411 39.0803C58.2797 38.332 59.5585 38.0218 61.7691 38.0233C64.217 38.0252 65.2382 38.3145 66.4621 39.3539C67.3225 40.0846 68.5009 41.4759 69.0809 42.4456C69.6609 43.4154 70.5365 45.6049 71.0268 47.3113C71.7547 49.8451 71.9181 51.4942 71.9181 56.3084C71.9181 60.9531 71.7467 62.7952 71.1096 64.9953C70.6649 66.531 69.8292 68.6732 69.2524 69.7557C68.6756 70.8383 67.4599 72.2943 66.5507 72.9914C65.6416 73.6885 63.9299 74.3949 62.7468 74.5611C61.5638 74.7273 60.0679 74.6443 59.4226 74.3765ZM65.1542 67.6313C65.7255 67.0961 66.6054 65.5162 67.1096 64.1204C67.8739 62.0047 68.0264 60.7054 68.0264 56.3084C68.0264 51.8244 67.8799 50.6251 67.0487 48.3037C66.5004 46.7724 65.4699 45.0524 64.7022 44.3875C63.7144 43.5317 62.8083 43.2746 61.4467 43.4635C60.409 43.6075 59.0891 44.2693 58.5136 44.9341C57.9381 45.599 57.0713 47.3724 56.5873 48.8752C55.9014 51.0051 55.7093 52.6386 55.716 56.2847C55.7218 59.4849 55.9514 61.7459 56.4429 63.444C56.838 64.8091 57.4941 66.3909 57.9009 66.959C58.3077 67.5272 59.2564 68.2785 60.0093 68.6287C60.7621 68.9789 61.994 69.1166 62.7468 68.9349C63.4997 68.7531 64.583 68.1665 65.1542 67.6313ZM109.872 74.3765C109.227 74.1088 108.171 73.448 107.526 72.9082C106.88 72.3683 105.8 70.9953 105.125 69.857C104.45 68.7188 103.581 66.8102 103.194 65.6158C102.724 64.1662 102.435 61.587 102.326 57.8596C102.236 54.7882 102.353 51.154 102.586 49.7837C102.818 48.4134 103.528 45.9946 104.161 44.4088C104.84 42.7119 106.043 40.8474 107.086 39.8779C108.15 38.8887 109.72 38.0892 111.017 37.8769C112.282 37.6697 113.91 37.8496 114.95 38.3114C115.926 38.7448 117.489 40.1687 118.425 41.4756C119.389 42.821 120.482 45.1622 120.946 46.8723C121.396 48.5336 121.885 51.7551 122.032 54.0313C122.299 58.1699 122.299 58.1699 114.176 58.1699C106.054 58.1699 106.054 58.1699 106.272 60.7532C106.392 62.1741 106.822 64.0416 107.228 64.9032C107.633 65.7649 108.414 67.002 108.963 67.6524C109.585 68.3889 110.682 68.8714 111.872 68.9315C112.923 68.9847 114.353 68.6464 115.05 68.1797C115.748 67.713 116.686 66.3868 117.135 65.2325C117.751 63.6527 118.211 63.1491 118.997 63.1957C119.571 63.2297 120.428 63.4391 120.903 63.661C121.746 64.0554 121.751 64.1129 121.114 66.1913C120.755 67.361 119.857 69.2769 119.119 70.4489C118.38 71.6208 117.198 72.9624 116.493 73.4303C115.787 73.8982 114.272 74.4121 113.127 74.5722C111.982 74.7323 110.517 74.6443 109.872 74.3765ZM117.738 50.5688C117.601 49.4597 117.171 47.8542 116.781 47.001C116.392 46.1478 115.47 44.9616 114.733 44.3649C113.995 43.7682 112.813 43.2796 112.105 43.279C111.398 43.2785 110.124 43.8403 109.275 44.5274C108.282 45.3315 107.451 46.6494 106.944 48.2256C106.511 49.5725 106.157 51.1045 106.157 51.63C106.157 52.4482 107.007 52.5854 112.072 52.5854C117.987 52.5854 117.987 52.5854 117.738 50.5688ZM134.594 74.0748C133.564 73.6168 132.068 72.4061 131.269 71.3845C130.471 70.3629 129.289 67.8991 128.644 65.9093C127.581 62.6313 127.471 61.7339 127.471 56.3527C127.471 51.4643 127.63 49.8649 128.372 47.3113C128.867 45.6049 129.747 43.4154 130.327 42.4456C130.907 41.4759 132.085 40.0846 132.946 39.3539C134.166 38.3176 135.198 38.023 137.639 38.0146C140.367 38.0052 141.006 38.226 142.627 39.7385C143.918 40.9419 144.845 42.4621 145.655 44.7024C146.297 46.4786 146.824 48.3959 146.826 48.9631C146.828 49.6916 146.35 50.123 145.196 50.4323C143.938 50.7694 143.465 50.6499 143.142 49.9128C142.912 49.3862 142.419 48.0852 142.047 47.0217C141.674 45.9537 140.761 44.6828 140.007 44.183C139.256 43.6853 138.064 43.2827 137.358 43.2883C136.652 43.2939 135.386 43.9221 134.545 44.6844C133.641 45.503 132.681 47.0862 132.198 48.5522C131.557 50.5017 131.381 52.1657 131.381 56.3084C131.381 60.7054 131.534 62.0047 132.298 64.1204C132.803 65.5162 133.744 67.1545 134.392 67.7609C135.04 68.369 136.383 68.8791 137.386 68.8982C138.395 68.9175 139.783 68.452 140.508 67.8508C141.371 67.136 142.074 65.8358 142.58 64.0205C143.314 61.3864 143.416 61.2723 145.022 61.2723C145.944 61.2723 146.803 61.4372 146.93 61.6387C147.057 61.8402 146.907 63.1473 146.596 64.5434C146.286 65.9395 145.589 68.0022 145.048 69.1271C144.508 70.2521 143.318 71.8671 142.405 72.716C141.428 73.6247 139.865 74.3928 138.605 74.5836C137.358 74.7725 135.685 74.5604 134.594 74.0748ZM156.158 73.9836C155.066 73.4296 153.872 72.2149 153.167 70.9401C152.517 69.7659 151.879 67.7514 151.738 66.4286C151.588 65.0154 151.691 63.0539 151.992 61.6297C152.278 60.2735 153.102 58.4514 153.877 57.4602C154.765 56.3257 156.364 55.2691 158.375 54.4888C160.091 53.8229 162.507 52.9628 163.743 52.5775C165.812 51.9331 165.992 51.744 165.991 50.2146C165.99 49.3003 165.638 47.6379 165.208 46.5202C164.779 45.4026 163.944 44.1916 163.352 43.8291C162.761 43.4666 161.531 43.2992 160.62 43.4571C159.709 43.615 158.499 44.2274 157.931 44.818C157.363 45.4087 156.706 46.6999 156.471 47.6875C156.082 49.323 155.877 49.483 154.174 49.483C152.55 49.483 152.304 49.3159 152.304 48.2112C152.304 47.5117 152.557 46.1644 152.866 45.2173C153.174 44.2701 154.13 42.4876 154.989 41.2562C155.848 40.0248 157.223 38.721 158.045 38.3589C158.867 37.9968 160.419 37.7052 161.495 37.7108C162.57 37.7163 164.154 38.238 165.014 38.87C165.875 39.5021 167.052 40.8222 167.629 41.8037C168.207 42.7853 168.897 44.426 169.162 45.4498C169.44 46.5227 169.74 51.7802 169.871 57.8597C170.098 68.408 170.098 68.408 171.391 68.6049C172.649 68.7968 172.68 68.8692 172.564 71.3972C172.462 73.6171 172.306 74.0235 171.484 74.2075C170.956 74.3257 169.848 74.1011 169.021 73.7083C168.062 73.252 167.261 72.322 166.806 71.1327C166.278 69.7567 166.034 69.5102 165.871 70.1873C165.749 70.6911 164.885 71.8134 163.952 72.6814C162.939 73.6235 161.392 74.3897 160.115 74.5826C158.76 74.787 157.308 74.5671 156.158 73.9836ZM163.216 68.1287C164.127 67.3917 164.962 66.0817 165.352 64.7774C165.704 63.5996 165.992 61.3331 165.992 59.7407C165.992 57.2763 165.89 56.8924 165.308 57.1615C164.931 57.3355 163.039 57.9635 161.104 58.5572C158.274 59.425 157.364 59.9842 156.463 61.4101C155.534 62.8789 155.383 63.5257 155.584 65.1753C155.717 66.2707 156.197 67.6557 156.651 68.2529C157.213 68.9931 158.151 69.3387 159.598 69.3387C160.932 69.3387 162.278 68.8886 163.216 68.1287ZM77.999 71.2002C77.999 68.7182 77.999 68.7182 80.9321 68.7182C83.8652 68.7182 83.8652 68.7182 83.8652 56.3084C83.8652 43.8986 83.8652 43.8986 80.9321 43.8986C77.999 43.8986 77.999 43.8986 77.999 41.1064C77.999 38.3141 77.999 38.3141 82.4964 38.3141C86.9938 38.3141 86.9938 38.3141 86.9964 41.2615C86.9992 44.2088 86.9992 44.2088 87.7223 42.4683C88.1201 41.511 88.8669 40.2593 89.3818 39.6867C90.0776 38.913 91.1718 38.6429 93.6422 38.635C96.9664 38.6244 96.9664 38.6244 97.0847 41.1985C97.203 43.7727 97.203 43.7727 93.6712 43.9907C90.4863 44.1874 90.0399 44.3668 89.126 45.8174C88.5686 46.7022 87.953 48.5171 87.758 49.8506C87.5631 51.1841 87.3994 55.9749 87.3942 60.4967C87.3849 68.7182 87.3849 68.7182 90.9046 68.7182C94.4244 68.7182 94.4244 68.7182 94.4244 71.2002C94.4244 73.6822 94.4244 73.6822 86.2117 73.6822C77.999 73.6822 77.999 73.6822 77.999 71.2002Z" fill="black"/>
</svg>
